HIERARCHY
ROOT hip
{
	OFFSET 0.00000 0.00000 0.00000
	CHANNELS 6 Xposition Yposition Zposition Zrotation Yrotation Xrotation 
	JOINT rightuplegdummy
	{
		OFFSET 0 0 0
		CHANNELS 3 Zrotation Yrotation Xrotation
		JOINT rightupleg
		{
			OFFSET -3.52197 -3.41223 0.04002
			CHANNELS 3 Zrotation Yrotation Xrotation
			JOINT rightleg
			{
				OFFSET 0.00006 -17.42390 1.60435
				CHANNELS 3 Zrotation Yrotation Xrotation
				JOINT rightfoot
				{
					OFFSET 0.06153 -16.50078 -1.63901
					CHANNELS 3 Zrotation Yrotation Xrotation
					JOINT righttoes
					{
						OFFSET 0.00298 -1.73825 3.34613
						CHANNELS 3 Zrotation Yrotation Xrotation
						End Site
						{
							OFFSET 0.00480 -0.05416 3.85043
						}
					}
				}
			}
		}
	}
	JOINT spinedummy
	{
		OFFSET 0 0 0
		CHANNELS 3 Zrotation Yrotation Xrotation
		JOINT spine
		{
			OFFSET 0.00000 4.68130 0.00000
			CHANNELS 3 Zrotation Yrotation Xrotation
			JOINT spine1
			{
				OFFSET -0.00000 10.10138 0.05002
				CHANNELS 3 Zrotation Yrotation Xrotation
				JOINT headdummy
				{
					OFFSET 0 0 0
					CHANNELS 3 Zrotation Yrotation Xrotation
					JOINT head
					{
						OFFSET -0.00000 3.43865 0.00438
						CHANNELS 3 Zrotation Yrotation Xrotation
						End Site
						{
							OFFSET -0.11417 5.02924 0.98962
						}
					}
				}
				JOINT leftshoulder1dummy
				{
					OFFSET 0 0 0
					CHANNELS 3 Zrotation Yrotation Xrotation
					JOINT leftshoulder1
					{
						OFFSET 3.53937 -0.14262 -0.08662
						CHANNELS 3 Zrotation Yrotation Xrotation
						JOINT leftarm
						{
							OFFSET 4.04833 -0.00133 0.12681
							CHANNELS 3 Zrotation Yrotation Xrotation
							JOINT leftforearm
							{
								OFFSET 10.33880 -0.01036 -0.55515
								CHANNELS 3 Zrotation Yrotation Xrotation
								JOINT lefthand
								{
									OFFSET 8.69677 0.07543 0.40060
									CHANNELS 3 Zrotation Yrotation Xrotation
									End Site
									{
										OFFSET 5.28377 -0.21905 0.59205
									}
								}
							}
						}
					}
				}
				JOINT rightshoulderdummy
				{
					OFFSET 0 0 0
					CHANNELS 3 Zrotation Yrotation Xrotation
					JOINT rightshoulder
					{
						OFFSET -3.53937 -0.14262 -0.08660
						CHANNELS 3 Zrotation Yrotation Xrotation
						JOINT rightarm
						{
							OFFSET -4.04833 -0.00133 0.12683
							CHANNELS 3 Zrotation Yrotation Xrotation
							JOINT rightforearm
							{
								OFFSET -10.37987 -0.01039 -0.55511
								CHANNELS 3 Zrotation Yrotation Xrotation
								JOINT righthand
								{
									OFFSET -8.67398 0.07538 0.40058
									CHANNELS 3 Zrotation Yrotation Xrotation
									End Site
									{
										OFFSET -5.24810 -0.21916 0.59204
									}
								}
							}
						}
					}
				}
			}
		}
	}
	JOINT leftuplegdummy
	{
		OFFSET 0 0 0
		CHANNELS 3 Zrotation Yrotation Xrotation
		JOINT leftupleg
		{
			OFFSET 3.52197 -3.41223 0.04002
			CHANNELS 3 Zrotation Yrotation Xrotation
			JOINT leftleg
			{
				OFFSET -0.00012 -17.42399 1.60337
				CHANNELS 3 Zrotation Yrotation Xrotation
				JOINT leftfoot
				{
					OFFSET -0.09972 -16.50070 -1.63802
					CHANNELS 3 Zrotation Yrotation Xrotation
					JOINT lefttoes
					{
						OFFSET -0.01575 -1.73823 3.34611
						CHANNELS 3 Zrotation Yrotation Xrotation
						End Site
						{
							OFFSET 0.03150 -0.01868 3.85031
						}
					}
				}
			}
		}
	}
}
MOTION
Frames: 10
Frame Time: 0.033333
-4.2893 37.8049 3.8594 -7.3570 -71.9112 -2.6294 0.0000 -0.0000 0.0000 -13.2385 -3.9619 -9.5430 3.4614 4.3939 32.0110 21.7652 -2.0821 -1.8954 0.0000 0.0000 -0.0000 0.0000 -0.0000 0.0000 2.3357 -1.5922 19.5651 2.4459 -1.6254 3.3395 -0.0000 -0.0000 -0.0000 -32.7067 51.4806 -26.8559 -0.0000 -0.0000 -0.0000 -25.1034 -2.5694 1.9004 -53.6658 15.3648 -10.2591 168.0368 -79.1558 -103.5433 13.9984 -0.0547 -0.6507 -0.0000 -0.0000 -0.0000 28.0969 6.2461 3.3293 43.6986 -3.5955 12.0616 -10.6167 85.3520 17.6128 -13.2094 6.6741 -1.3172 0.0000 -0.0000 0.0000 15.4627 2.5274 -13.9485 3.6946 3.3308 36.3195 -12.0840 1.2353 0.6311 0.0000 0.0000 -0.0000
-4.5382 36.2457 3.0576 -30.0201 -76.1649 16.9126 0.0000 -0.0000 0.0000 -6.8736 -7.7845 -11.0184 9.8006 10.2545 39.5945 14.1814 0.2633 -13.4397 0.0000 0.0000 -0.0000 0.0000 -0.0000 0.0000 8.3055 -2.7929 24.6829 1.7488 -0.8236 1.3302 -0.0000 -0.0000 -0.0000 -35.8428 53.1412 -31.5385 -0.0000 -0.0000 -0.0000 -25.1826 -2.0205 1.7286 -52.8756 15.0949 -12.2642 168.4696 -78.6198 -103.0443 16.2746 1.5029 -0.5544 -0.0000 -0.0000 -0.0000 28.5807 5.3269 3.0584 41.6488 -4.9153 6.8818 -5.3460 79.9439 25.3886 -17.4944 6.6950 -1.8026 0.0000 -0.0000 0.0000 22.9922 0.9464 -15.1829 10.2611 7.2297 48.4329 -16.3214 0.9297 -5.2430 0.0000 0.0000 -0.0000
-4.7222 35.6104 2.4700 -58.3820 -79.6784 46.8025 0.0000 -0.0000 0.0000 -1.8293 -4.8783 -16.2105 10.5029 9.4895 43.3595 10.6133 0.2947 -15.1014 0.0000 0.0000 -0.0000 0.0000 -0.0000 0.0000 12.4423 -2.8562 23.2410 0.1495 0.5513 2.9618 -0.0000 -0.0000 -0.0000 -40.4981 54.4418 -35.9390 -0.0000 -0.0000 -0.0000 -27.0520 -0.7598 1.4173 -52.7000 12.5597 -16.0431 167.8962 -78.9057 -100.2648 17.9158 1.6927 -0.5798 -0.0000 -0.0000 -0.0000 28.6702 4.5566 2.7981 39.7818 -6.8234 3.1391 -4.1763 74.7195 28.9168 -24.2952 8.1490 -2.7975 0.0000 -0.0000 0.0000 27.1064 -1.0691 -17.3830 15.9013 9.1533 54.3700 -20.6467 1.4127 -3.7335 0.0000 0.0000 -0.0000
-5.0403 35.8446 1.8686 -69.1109 -84.2617 58.3321 0.0000 -0.0000 0.0000 -3.6061 -2.1578 -17.4690 11.5148 10.2904 43.9396 8.6049 0.2532 -15.0708 0.0000 0.0000 -0.0000 0.0000 -0.0000 0.0000 9.3435 -2.0445 23.8084 -2.0693 1.0979 2.5849 -0.0000 -0.0000 -0.0000 -44.8024 55.0152 -40.1323 -0.0000 -0.0000 -0.0000 -26.6058 0.1017 1.1139 -54.6887 12.5499 -18.7572 169.8752 -76.8892 -103.6191 18.5845 1.4345 -0.6388 -0.0000 -0.0000 -0.0000 28.8556 4.1730 2.6806 40.8012 -12.4725 2.4609 -2.8843 72.9180 25.1924 -24.2672 9.1799 -3.0242 0.0000 -0.0000 0.0000 23.7577 -1.8641 -16.0897 20.9204 12.2083 54.9462 -15.8248 1.5628 0.3483 0.0000 0.0000 -0.0000
-5.2646 37.1723 1.5710 -69.1378 -85.9405 60.3434 0.0000 -0.0000 0.0000 -4.7427 -7.0683 -15.1797 13.0817 15.1849 36.4272 6.3129 -0.1796 -9.2744 0.0000 0.0000 -0.0000 0.0000 -0.0000 0.0000 8.3975 -2.3357 20.6663 -3.0906 0.5146 4.2783 -0.0000 -0.0000 -0.0000 -46.8963 54.7255 -40.9471 -0.0000 -0.0000 -0.0000 -26.4580 0.2686 1.0556 -55.1692 12.5223 -18.7029 171.2814 -74.8333 -105.6576 20.4999 1.9752 -0.6149 -0.0000 -0.0000 -0.0000 27.6431 3.6548 2.4139 42.8901 -18.4920 4.2753 -3.0761 73.0059 26.3722 -20.9012 8.1945 -2.4024 0.0000 -0.0000 0.0000 20.4007 1.2215 -15.2939 22.1570 15.9587 49.5560 -7.0636 1.0697 5.6766 0.0000 0.0000 -0.0000
-5.3487 38.6793 1.2206 -59.6733 -88.4566 52.2364 0.0000 -0.0000 0.0000 -5.6262 -9.7068 -12.5780 12.5576 20.0644 27.8240 10.1337 -0.9602 -0.5782 0.0000 0.0000 -0.0000 0.0000 -0.0000 0.0000 6.1667 -1.9215 20.8012 -4.7659 0.6304 2.7011 -0.0000 -0.0000 -0.0000 -46.7780 55.5185 -39.7868 -0.0000 -0.0000 -0.0000 -25.1445 0.6579 0.8924 -55.2115 12.2884 -17.7862 172.5208 -72.4009 -107.3658 20.5006 0.8200 -0.8111 -0.0000 -0.0000 -0.0000 26.8081 3.7476 2.3860 44.4683 -23.5933 6.7824 -3.6388 72.0360 31.0338 -17.1710 9.1376 -2.0904 0.0000 -0.0000 0.0000 16.7829 10.1295 -13.3549 16.2380 15.1550 41.6666 -8.4392 1.4528 8.9287 0.0000 0.0000 -0.0000
-5.3330 39.9697 0.8781 -141.4900 -89.1233 135.0530 0.0000 -0.0000 0.0000 -6.7245 -12.0833 -10.7317 10.4099 22.4972 20.1177 15.2294 -2.7856 9.1493 0.0000 0.0000 -0.0000 0.0000 -0.0000 0.0000 2.8564 -1.3449 21.9404 -5.2538 0.4196 0.3770 -0.0000 -0.0000 -0.0000 -46.9264 56.8457 -39.0457 -0.0000 -0.0000 -0.0000 -23.9969 0.7908 0.8207 -53.7772 11.9170 -16.5254 173.7506 -69.2454 -110.4647 20.3655 0.2095 -0.9097 -0.0000 -0.0000 -0.0000 25.6593 4.3713 2.5050 46.2517 -26.8147 7.8210 -3.7050 70.1525 34.1758 -11.7137 10.1205 -1.4900 0.0000 -0.0000 0.0000 12.8958 18.2756 -13.4489 11.5766 11.7571 38.6313 -8.2117 1.4517 9.4884 0.0000 0.0000 -0.0000
-5.2749 40.7247 0.5009 95.0738 -88.5384 -100.6970 0.0000 -0.0000 0.0000 -7.9375 -12.9792 -9.7009 5.1656 14.2187 15.5269 21.5727 -4.8633 14.2907 0.0000 0.0000 -0.0000 0.0000 -0.0000 0.0000 -0.7552 -1.3112 21.5263 -3.5385 -0.7869 0.3298 -0.0000 -0.0000 -0.0000 -48.1960 57.4235 -39.7501 -0.0000 -0.0000 -0.0000 -23.1836 0.4953 0.8885 -50.9063 10.3210 -14.9575 174.5965 -66.1009 -112.4676 22.0869 1.2349 -0.7997 -0.0000 -0.0000 -0.0000 25.3599 5.0424 2.6934 47.0119 -28.2245 7.5958 -3.2652 67.4931 34.7313 -9.6580 10.1740 -1.2141 0.0000 -0.0000 0.0000 10.2012 22.1557 -16.3520 11.4631 10.4716 41.3539 -9.0708 1.5322 8.4293 0.0000 0.0000 -0.0000
-5.1405 41.0939 0.1370 23.2618 -86.6505 -28.4678 0.0000 -0.0000 0.0000 -9.5413 -9.7397 -9.5822 -1.3071 -2.3248 17.8172 16.8556 -3.5342 12.3200 0.0000 0.0000 -0.0000 0.0000 -0.0000 0.0000 -3.6527 -1.5122 20.7438 -0.6147 -2.2800 1.3980 -0.0000 -0.0000 -0.0000 -49.0852 58.1596 -40.3903 -0.0000 -0.0000 -0.0000 -20.7507 -0.1798 0.9935 -49.3570 7.2053 -14.1601 174.9990 -63.7992 -112.4094 21.6903 1.6648 -0.7057 -0.0000 -0.0000 -0.0000 25.1404 4.9897 2.6582 48.1814 -28.0179 7.0723 -2.6951 63.4810 34.2694 -12.0733 9.8220 -1.5059 0.0000 -0.0000 0.0000 8.4193 23.7079 -19.5701 13.1983 10.7097 44.9843 -8.5365 1.4387 8.4485 0.0000 0.0000 -0.0000
-4.9437 41.1387 -0.1021 11.1212 -85.2261 -16.7325 0.0000 -0.0000 0.0000 -10.5287 -6.9460 -8.7736 -5.1619 -9.8324 21.5363 11.4804 -2.0503 9.3295 0.0000 0.0000 -0.0000 0.0000 -0.0000 0.0000 -3.2014 -1.8777 21.4413 -0.1592 -2.7141 1.1643 -0.0000 -0.0000 -0.0000 -47.9228 58.8089 -38.9883 -0.0000 -0.0000 -0.0000 -17.7502 -2.0163 1.3496 -48.1572 3.2791 -15.0777 175.1523 -62.8177 -112.1869 20.1405 0.9993 -0.7673 -0.0000 -0.0000 -0.0000 25.5737 4.4227 2.5149 48.6981 -27.2470 6.7452 -1.9433 58.4222 30.9592 -16.4885 8.8031 -1.9598 0.0000 -0.0000 0.0000 8.1666 24.8410 -21.5910 14.1035 10.4871 47.5279 -6.8490 1.1285 8.1607 0.0000 0.0000 -0.0000
